<svg xmlns="http://www.w3.org/2000/svg" xmlns:xlink="http://www.w3.org/1999/xlink" width="500" zoomAndPan="magnify" viewBox="0 0 375 374.999991" height="250" preserveAspectRatio="xMidYMid meet" version="1.0"><defs><g/></defs><g fill="#404040" fill-opacity="1"><g transform="translate(42.696595, 192.110759)"><g><path d="M 26.40625 -36.75 L 36.171875 -36.75 C 36.484375 -36.75 36.753906 -36.632812 36.984375 -36.40625 C 37.210938 -36.175781 37.328125 -35.957031 37.328125 -35.75 C 37.328125 -35.539062 37.3125 -35.367188 37.28125 -35.234375 L 27.40625 -1.734375 C 27.09375 -0.578125 26.304688 0 25.046875 0 L 13.078125 0 C 11.816406 0 11.023438 -0.578125 10.703125 -1.734375 L 0.84375 -35.234375 C 0.800781 -35.367188 0.78125 -35.539062 0.78125 -35.75 C 0.78125 -35.957031 0.894531 -36.175781 1.125 -36.40625 C 1.351562 -36.632812 1.625 -36.75 1.9375 -36.75 L 11.703125 -36.75 C 12.960938 -36.75 13.75 -36.171875 14.0625 -35.015625 L 19.0625 -15.484375 L 24.046875 -35.015625 C 24.359375 -36.171875 25.144531 -36.75 26.40625 -36.75 Z M 26.40625 -36.75 "/></g></g></g><g fill="#404040" fill-opacity="1"><g transform="translate(86.58755, 192.110759)"><g><path d="M 1.84375 -7.828125 C 1.84375 -12.546875 5.671875 -15.570312 13.328125 -16.90625 L 18.90625 -17.796875 C 18.90625 -18.847656 18.816406 -19.554688 18.640625 -19.921875 C 18.460938 -20.285156 18.050781 -20.46875 17.40625 -20.46875 C 16.757812 -20.46875 16.117188 -20.1875 15.484375 -19.625 C 14.859375 -19.070312 14.265625 -18.796875 13.703125 -18.796875 L 4.78125 -18.796875 C 4.007812 -18.796875 3.625 -19.171875 3.625 -19.921875 C 3.625 -20.671875 3.894531 -21.472656 4.4375 -22.328125 C 4.976562 -23.191406 5.765625 -24.039062 6.796875 -24.875 C 7.828125 -25.71875 9.28125 -26.421875 11.15625 -26.984375 C 13.03125 -27.546875 15.125 -27.828125 17.4375 -27.828125 C 22.125 -27.828125 25.640625 -26.84375 27.984375 -24.875 C 30.328125 -22.914062 31.5 -20.117188 31.5 -16.484375 L 31.5 -1.421875 C 31.5 -1.035156 31.359375 -0.703125 31.078125 -0.421875 C 30.796875 -0.140625 30.460938 0 30.078125 0 L 20.890625 0 C 20.503906 0 20.171875 -0.140625 19.890625 -0.421875 C 19.617188 -0.703125 19.484375 -1.035156 19.484375 -1.421875 L 19.484375 -2.890625 C 17.835938 -0.609375 15.4375 0.53125 12.28125 0.53125 C 9.132812 0.53125 6.609375 -0.265625 4.703125 -1.859375 C 2.796875 -3.453125 1.84375 -5.441406 1.84375 -7.828125 Z M 15.640625 -7.25 C 17.921875 -7.25 19.0625 -8.613281 19.0625 -11.34375 L 15.953125 -10.65625 C 14.421875 -10.300781 13.65625 -9.65625 13.65625 -8.71875 C 13.65625 -8.289062 13.828125 -7.9375 14.171875 -7.65625 C 14.523438 -7.382812 15.015625 -7.25 15.640625 -7.25 Z M 15.640625 -7.25 "/></g></g></g><g fill="#404040" fill-opacity="1"><g transform="translate(126.226019, 192.110759)"><g><path d="M 13.4375 0 L 4.046875 0 C 3.660156 0 3.328125 -0.140625 3.046875 -0.421875 C 2.765625 -0.703125 2.625 -1.035156 2.625 -1.421875 L 2.625 -35.859375 C 2.625 -36.242188 2.765625 -36.578125 3.046875 -36.859375 C 3.328125 -37.140625 3.660156 -37.28125 4.046875 -37.28125 L 13.4375 -37.28125 C 13.820312 -37.28125 14.15625 -37.140625 14.4375 -36.859375 C 14.71875 -36.578125 14.859375 -36.242188 14.859375 -35.859375 L 14.859375 -1.421875 C 14.859375 -1.035156 14.71875 -0.703125 14.4375 -0.421875 C 14.15625 -0.140625 13.820312 0 13.4375 0 Z M 13.4375 0 "/></g></g></g><g fill="#404040" fill-opacity="1"><g transform="translate(149.484498, 192.110759)"><g><path d="M 30.34375 -10.546875 L 14.703125 -10.546875 L 14.703125 -10.296875 C 14.703125 -8.160156 15.382812 -7.09375 16.75 -7.09375 C 17.132812 -7.09375 17.601562 -7.367188 18.15625 -7.921875 C 18.71875 -8.484375 19.332031 -8.765625 20 -8.765625 L 29.921875 -8.765625 C 30.691406 -8.765625 31.078125 -8.378906 31.078125 -7.609375 C 31.078125 -5.898438 29.789062 -4.113281 27.21875 -2.25 C 24.644531 -0.394531 21.160156 0.53125 16.765625 0.53125 C 12.378906 0.53125 8.796875 -0.613281 6.015625 -2.90625 C 3.234375 -5.207031 1.84375 -8.367188 1.84375 -12.390625 L 1.84375 -14.90625 C 1.84375 -18.71875 3.257812 -21.820312 6.09375 -24.21875 C 8.925781 -26.625 12.644531 -27.828125 17.25 -27.828125 C 21.851562 -27.828125 25.421875 -26.476562 27.953125 -23.78125 C 30.492188 -21.082031 31.765625 -17.671875 31.765625 -13.546875 L 31.765625 -11.96875 C 31.765625 -11.582031 31.625 -11.25 31.34375 -10.96875 C 31.0625 -10.6875 30.726562 -10.546875 30.34375 -10.546875 Z M 18.90625 -17.328125 C 18.90625 -19.421875 18.203125 -20.46875 16.796875 -20.46875 C 15.398438 -20.46875 14.703125 -19.421875 14.703125 -17.328125 L 14.703125 -17.109375 L 18.90625 -17.109375 Z M 18.90625 -17.328125 "/></g></g></g><g fill="#404040" fill-opacity="1"><g transform="translate(188.860457, 192.110759)"><g><path d="M 33.546875 -15.90625 L 33.546875 -1.421875 C 33.546875 -1.035156 33.40625 -0.703125 33.125 -0.421875 C 32.84375 -0.140625 32.507812 0 32.125 0 L 22.109375 0 C 21.722656 0 21.390625 -0.140625 21.109375 -0.421875 C 20.828125 -0.703125 20.6875 -1.035156 20.6875 -1.421875 L 20.6875 -15.546875 C 20.6875 -17.460938 19.8125 -18.421875 18.0625 -18.421875 C 16.3125 -18.421875 15.4375 -17.460938 15.4375 -15.546875 L 15.4375 -1.421875 C 15.4375 -1.035156 15.296875 -0.703125 15.015625 -0.421875 C 14.734375 -0.140625 14.398438 0 14.015625 0 L 4.046875 0 C 3.660156 0 3.328125 -0.140625 3.046875 -0.421875 C 2.765625 -0.703125 2.625 -1.035156 2.625 -1.421875 L 2.625 -25.875 C 2.625 -26.257812 2.765625 -26.59375 3.046875 -26.875 C 3.328125 -27.15625 3.660156 -27.296875 4.046875 -27.296875 L 13.234375 -27.296875 C 13.617188 -27.296875 13.945312 -27.15625 14.21875 -26.875 C 14.5 -26.59375 14.640625 -26.257812 14.640625 -25.875 L 14.640625 -24.15625 C 15.554688 -25.238281 16.789062 -26.117188 18.34375 -26.796875 C 19.90625 -27.484375 21.578125 -27.828125 23.359375 -27.828125 C 26.234375 -27.828125 28.648438 -26.816406 30.609375 -24.796875 C 32.566406 -22.785156 33.546875 -19.820312 33.546875 -15.90625 Z M 33.546875 -15.90625 "/></g></g></g><g fill="#404040" fill-opacity="1"><g transform="translate(230.546428, 192.110759)"><g><path d="M 18.375 -18.109375 L 18.375 -12.34375 C 18.375 -10.59375 19.125 -9.71875 20.625 -9.71875 L 25.40625 -9.71875 C 25.789062 -9.71875 26.125 -9.578125 26.40625 -9.296875 C 26.6875 -9.015625 26.828125 -8.679688 26.828125 -8.296875 L 26.828125 -1.421875 C 26.828125 -1.035156 26.6875 -0.703125 26.40625 -0.421875 C 26.125 -0.140625 25.789062 0 25.40625 0 L 19.484375 0 C 10.734375 0 6.359375 -3.757812 6.359375 -11.28125 L 6.359375 -18.109375 L 2.203125 -18.109375 C 1.816406 -18.109375 1.484375 -18.25 1.203125 -18.53125 C 0.921875 -18.8125 0.78125 -19.144531 0.78125 -19.53125 L 0.78125 -25.875 C 0.78125 -26.257812 0.921875 -26.59375 1.203125 -26.875 C 1.484375 -27.15625 1.816406 -27.296875 2.203125 -27.296875 L 6.359375 -27.296875 L 6.359375 -35.859375 C 6.359375 -36.242188 6.492188 -36.578125 6.765625 -36.859375 C 7.046875 -37.140625 7.378906 -37.28125 7.765625 -37.28125 L 16.953125 -37.28125 C 17.335938 -37.28125 17.671875 -37.140625 17.953125 -36.859375 C 18.234375 -36.578125 18.375 -36.242188 18.375 -35.859375 L 18.375 -27.296875 L 24.984375 -27.296875 C 25.367188 -27.296875 25.703125 -27.15625 25.984375 -26.875 C 26.265625 -26.59375 26.40625 -26.257812 26.40625 -25.875 L 26.40625 -19.53125 C 26.40625 -19.144531 26.265625 -18.8125 25.984375 -18.53125 C 25.703125 -18.25 25.367188 -18.109375 24.984375 -18.109375 Z M 18.375 -18.109375 "/></g></g></g><g fill="#404040" fill-opacity="1"><g transform="translate(264.199906, 192.110759)"><g><path d="M 13.4375 0 L 4.046875 0 C 3.660156 0 3.328125 -0.140625 3.046875 -0.421875 C 2.765625 -0.703125 2.625 -1.035156 2.625 -1.421875 L 2.625 -25.875 C 2.625 -26.257812 2.765625 -26.59375 3.046875 -26.875 C 3.328125 -27.15625 3.660156 -27.296875 4.046875 -27.296875 L 13.4375 -27.296875 C 13.820312 -27.296875 14.15625 -27.15625 14.4375 -26.875 C 14.71875 -26.59375 14.859375 -26.257812 14.859375 -25.875 L 14.859375 -1.421875 C 14.859375 -1.035156 14.71875 -0.703125 14.4375 -0.421875 C 14.15625 -0.140625 13.820312 0 13.4375 0 Z M 14.59375 -37.4375 L 14.59375 -31.078125 C 14.59375 -30.691406 14.453125 -30.359375 14.171875 -30.078125 C 13.890625 -29.796875 13.554688 -29.65625 13.171875 -29.65625 L 4.3125 -29.65625 C 3.925781 -29.65625 3.59375 -29.796875 3.3125 -30.078125 C 3.03125 -30.359375 2.890625 -30.691406 2.890625 -31.078125 L 2.890625 -37.4375 C 2.890625 -37.820312 3.03125 -38.148438 3.3125 -38.421875 C 3.59375 -38.703125 3.925781 -38.84375 4.3125 -38.84375 L 13.171875 -38.84375 C 13.554688 -38.84375 13.890625 -38.703125 14.171875 -38.421875 C 14.453125 -38.148438 14.59375 -37.820312 14.59375 -37.4375 Z M 14.59375 -37.4375 "/></g></g></g><g fill="#404040" fill-opacity="1"><g transform="translate(287.458396, 192.110759)"><g><path d="M 33.546875 -15.90625 L 33.546875 -1.421875 C 33.546875 -1.035156 33.40625 -0.703125 33.125 -0.421875 C 32.84375 -0.140625 32.507812 0 32.125 0 L 22.109375 0 C 21.722656 0 21.390625 -0.140625 21.109375 -0.421875 C 20.828125 -0.703125 20.6875 -1.035156 20.6875 -1.421875 L 20.6875 -15.546875 C 20.6875 -17.460938 19.8125 -18.421875 18.0625 -18.421875 C 16.3125 -18.421875 15.4375 -17.460938 15.4375 -15.546875 L 15.4375 -1.421875 C 15.4375 -1.035156 15.296875 -0.703125 15.015625 -0.421875 C 14.734375 -0.140625 14.398438 0 14.015625 0 L 4.046875 0 C 3.660156 0 3.328125 -0.140625 3.046875 -0.421875 C 2.765625 -0.703125 2.625 -1.035156 2.625 -1.421875 L 2.625 -25.875 C 2.625 -26.257812 2.765625 -26.59375 3.046875 -26.875 C 3.328125 -27.15625 3.660156 -27.296875 4.046875 -27.296875 L 13.234375 -27.296875 C 13.617188 -27.296875 13.945312 -27.15625 14.21875 -26.875 C 14.5 -26.59375 14.640625 -26.257812 14.640625 -25.875 L 14.640625 -24.15625 C 15.554688 -25.238281 16.789062 -26.117188 18.34375 -26.796875 C 19.90625 -27.484375 21.578125 -27.828125 23.359375 -27.828125 C 26.234375 -27.828125 28.648438 -26.816406 30.609375 -24.796875 C 32.566406 -22.785156 33.546875 -19.820312 33.546875 -15.90625 Z M 33.546875 -15.90625 "/></g></g></g><path stroke-linecap="butt" transform="matrix(-0.75, 0, 0, -0.75, 343.236779, 142.033995)" fill="none" stroke-linejoin="miter" d="M -0.00200332 4.998452 L 84.435502 4.998452 " stroke="#404040" stroke-width="10" stroke-opacity="1" stroke-miterlimit="4"/><path stroke-linecap="butt" transform="matrix(0, -0.75, 0.75, 0, 335.740646, 198.627673)" fill="none" stroke-linejoin="miter" d="M -0.00164386 5.002056 L 82.461903 5.002056 " stroke="#404040" stroke-width="10" stroke-opacity="1" stroke-miterlimit="4"/><path stroke-linecap="butt" transform="matrix(0.75, 0, 0, 0.75, 27.000003, 223.187973)" fill="none" stroke-linejoin="miter" d="M -0.000003636 4.999369 L 84.432294 4.999369 " stroke="#404040" stroke-width="10" stroke-opacity="1" stroke-miterlimit="4"/><path stroke-linecap="butt" transform="matrix(0, 0.75, -0.75, 0, 34.496157, 166.594295)" fill="none" stroke-linejoin="miter" d="M -0.000726214 5.000085 L 82.462821 5.000085 " stroke="#404040" stroke-width="10" stroke-opacity="1" stroke-miterlimit="4"/><g fill="#404040" fill-opacity="1"><g transform="translate(137.048887, 215.735758)"><g><path d="M 2.40625 -18.28125 L 10.1875 -18.28125 C 12.6875 -18.28125 14.640625 -17.738281 16.046875 -16.65625 C 17.460938 -15.570312 18.171875 -13.976562 18.171875 -11.875 C 18.171875 -9.769531 17.46875 -8.210938 16.0625 -7.203125 C 14.664062 -6.191406 12.707031 -5.6875 10.1875 -5.6875 L 8.484375 -5.6875 L 8.484375 -0.703125 C 8.484375 -0.515625 8.410156 -0.347656 8.265625 -0.203125 C 8.128906 -0.0664062 7.96875 0 7.78125 0 L 2.40625 0 C 2.207031 0 2.039062 -0.0664062 1.90625 -0.203125 C 1.769531 -0.347656 1.703125 -0.515625 1.703125 -0.703125 L 1.703125 -17.578125 C 1.703125 -17.765625 1.769531 -17.925781 1.90625 -18.0625 C 2.039062 -18.207031 2.207031 -18.28125 2.40625 -18.28125 Z M 8.359375 -13.421875 L 8.359375 -10.515625 L 10.1875 -10.515625 C 10.5 -10.515625 10.773438 -10.632812 11.015625 -10.875 C 11.265625 -11.113281 11.390625 -11.445312 11.390625 -11.875 C 11.390625 -12.3125 11.289062 -12.675781 11.09375 -12.96875 C 10.90625 -13.269531 10.601562 -13.421875 10.1875 -13.421875 Z M 8.359375 -13.421875 "/></g></g></g><g fill="#404040" fill-opacity="1"><g transform="translate(158.867816, 215.735758)"><g><path d="M 0.90625 -5.90625 L 0.90625 -7.671875 C 0.90625 -9.660156 1.609375 -11.1875 3.015625 -12.25 C 4.429688 -13.3125 6.253906 -13.84375 8.484375 -13.84375 C 10.710938 -13.84375 12.53125 -13.3125 13.9375 -12.25 C 15.351562 -11.1875 16.0625 -9.660156 16.0625 -7.671875 L 16.0625 -5.90625 C 16.0625 -3.894531 15.378906 -2.363281 14.015625 -1.3125 C 12.660156 -0.257812 10.816406 0.265625 8.484375 0.265625 C 6.148438 0.265625 4.300781 -0.257812 2.9375 -1.3125 C 1.582031 -2.363281 0.90625 -3.894531 0.90625 -5.90625 Z M 9.65625 -5.6875 L 9.65625 -7.890625 C 9.65625 -8.546875 9.566406 -9.003906 9.390625 -9.265625 C 9.222656 -9.523438 8.921875 -9.65625 8.484375 -9.65625 C 8.046875 -9.65625 7.738281 -9.523438 7.5625 -9.265625 C 7.394531 -9.003906 7.3125 -8.546875 7.3125 -7.890625 L 7.3125 -5.6875 C 7.3125 -4.988281 7.394531 -4.519531 7.5625 -4.28125 C 7.738281 -4.039062 8.046875 -3.921875 8.484375 -3.921875 C 8.921875 -3.921875 9.222656 -4.050781 9.390625 -4.3125 C 9.566406 -4.570312 9.65625 -5.03125 9.65625 -5.6875 Z M 9.65625 -5.6875 "/></g></g></g><g fill="#404040" fill-opacity="1"><g transform="translate(178.703325, 215.735758)"><g><path d="M 7.03125 -12.875 L 7.03125 -11.953125 C 8.238281 -13.035156 9.59375 -13.578125 11.09375 -13.578125 L 12.34375 -13.578125 C 12.539062 -13.578125 12.707031 -13.503906 12.84375 -13.359375 C 12.988281 -13.222656 13.0625 -13.0625 13.0625 -12.875 L 13.0625 -8.796875 C 13.0625 -8.609375 12.988281 -8.441406 12.84375 -8.296875 C 12.707031 -8.160156 12.539062 -8.09375 12.34375 -8.09375 L 8.984375 -8.09375 C 8.515625 -8.09375 8.144531 -7.984375 7.875 -7.765625 C 7.601562 -7.546875 7.453125 -7.253906 7.421875 -6.890625 L 7.421875 -0.703125 C 7.421875 -0.515625 7.347656 -0.347656 7.203125 -0.203125 C 7.066406 -0.0664062 6.898438 0 6.703125 0 L 1.75 0 C 1.5625 0 1.394531 -0.0664062 1.25 -0.203125 C 1.113281 -0.347656 1.046875 -0.515625 1.046875 -0.703125 L 1.046875 -12.875 C 1.046875 -13.0625 1.113281 -13.222656 1.25 -13.359375 C 1.394531 -13.503906 1.5625 -13.578125 1.75 -13.578125 L 6.3125 -13.578125 C 6.507812 -13.578125 6.675781 -13.503906 6.8125 -13.359375 C 6.957031 -13.222656 7.03125 -13.0625 7.03125 -12.875 Z M 7.03125 -12.875 "/></g></g></g><g fill="#404040" fill-opacity="1"><g transform="translate(195.407103, 215.735758)"><g><path d="M 9.140625 -9 L 9.140625 -6.140625 C 9.140625 -5.265625 9.515625 -4.828125 10.265625 -4.828125 L 12.640625 -4.828125 C 12.828125 -4.828125 12.988281 -4.753906 13.125 -4.609375 C 13.269531 -4.472656 13.34375 -4.3125 13.34375 -4.125 L 13.34375 -0.703125 C 13.34375 -0.515625 13.269531 -0.347656 13.125 -0.203125 C 12.988281 -0.0664062 12.828125 0 12.640625 0 L 9.6875 0 C 5.332031 0 3.15625 -1.867188 3.15625 -5.609375 L 3.15625 -9 L 1.09375 -9 C 0.90625 -9 0.738281 -9.066406 0.59375 -9.203125 C 0.457031 -9.347656 0.390625 -9.519531 0.390625 -9.71875 L 0.390625 -12.875 C 0.390625 -13.0625 0.457031 -13.222656 0.59375 -13.359375 C 0.738281 -13.503906 0.90625 -13.578125 1.09375 -13.578125 L 3.15625 -13.578125 L 3.15625 -17.828125 C 3.15625 -18.023438 3.222656 -18.191406 3.359375 -18.328125 C 3.503906 -18.460938 3.671875 -18.53125 3.859375 -18.53125 L 8.4375 -18.53125 C 8.625 -18.53125 8.785156 -18.460938 8.921875 -18.328125 C 9.066406 -18.191406 9.140625 -18.023438 9.140625 -17.828125 L 9.140625 -13.578125 L 12.421875 -13.578125 C 12.617188 -13.578125 12.785156 -13.503906 12.921875 -13.359375 C 13.066406 -13.222656 13.140625 -13.0625 13.140625 -12.875 L 13.140625 -9.71875 C 13.140625 -9.519531 13.066406 -9.347656 12.921875 -9.203125 C 12.785156 -9.066406 12.617188 -9 12.421875 -9 Z M 9.140625 -9 "/></g></g></g><g fill="#404040" fill-opacity="1"><g transform="translate(212.136979, 215.735758)"><g><path d="M 8.875 -13.890625 L 8.875 -13.578125 L 11.828125 -13.578125 C 12.015625 -13.578125 12.175781 -13.503906 12.3125 -13.359375 C 12.457031 -13.222656 12.53125 -13.0625 12.53125 -12.875 L 12.53125 -9.71875 C 12.53125 -9.519531 12.457031 -9.347656 12.3125 -9.203125 C 12.175781 -9.066406 12.015625 -9 11.828125 -9 L 8.875 -9 L 8.875 -0.703125 C 8.875 -0.515625 8.800781 -0.347656 8.65625 -0.203125 C 8.519531 -0.0664062 8.359375 0 8.171875 0 L 3.609375 0 C 3.410156 0 3.238281 -0.0664062 3.09375 -0.203125 C 2.957031 -0.347656 2.890625 -0.515625 2.890625 -0.703125 L 2.890625 -9 L 1.09375 -9 C 0.90625 -9 0.738281 -9.066406 0.59375 -9.203125 C 0.457031 -9.347656 0.390625 -9.519531 0.390625 -9.71875 L 0.390625 -12.875 C 0.390625 -13.0625 0.457031 -13.222656 0.59375 -13.359375 C 0.738281 -13.503906 0.90625 -13.578125 1.09375 -13.578125 L 2.890625 -13.578125 L 2.890625 -14.015625 C 2.890625 -16.003906 3.488281 -17.382812 4.6875 -18.15625 C 5.894531 -18.9375 7.5625 -19.328125 9.6875 -19.328125 L 12.109375 -19.328125 C 12.304688 -19.328125 12.472656 -19.253906 12.609375 -19.109375 C 12.742188 -18.972656 12.8125 -18.804688 12.8125 -18.609375 L 12.8125 -15.453125 C 12.8125 -15.265625 12.742188 -15.097656 12.609375 -14.953125 C 12.472656 -14.816406 12.304688 -14.75 12.109375 -14.75 L 10 -14.75 C 9.25 -14.75 8.875 -14.460938 8.875 -13.890625 Z M 8.875 -13.890625 "/></g></g></g><g fill="#404040" fill-opacity="1"><g transform="translate(228.344902, 215.735758)"><g><path d="M 0.90625 -5.90625 L 0.90625 -7.671875 C 0.90625 -9.660156 1.609375 -11.1875 3.015625 -12.25 C 4.429688 -13.3125 6.253906 -13.84375 8.484375 -13.84375 C 10.710938 -13.84375 12.53125 -13.3125 13.9375 -12.25 C 15.351562 -11.1875 16.0625 -9.660156 16.0625 -7.671875 L 16.0625 -5.90625 C 16.0625 -3.894531 15.378906 -2.363281 14.015625 -1.3125 C 12.660156 -0.257812 10.816406 0.265625 8.484375 0.265625 C 6.148438 0.265625 4.300781 -0.257812 2.9375 -1.3125 C 1.582031 -2.363281 0.90625 -3.894531 0.90625 -5.90625 Z M 9.65625 -5.6875 L 9.65625 -7.890625 C 9.65625 -8.546875 9.566406 -9.003906 9.390625 -9.265625 C 9.222656 -9.523438 8.921875 -9.65625 8.484375 -9.65625 C 8.046875 -9.65625 7.738281 -9.523438 7.5625 -9.265625 C 7.394531 -9.003906 7.3125 -8.546875 7.3125 -7.890625 L 7.3125 -5.6875 C 7.3125 -4.988281 7.394531 -4.519531 7.5625 -4.28125 C 7.738281 -4.039062 8.046875 -3.921875 8.484375 -3.921875 C 8.921875 -3.921875 9.222656 -4.050781 9.390625 -4.3125 C 9.566406 -4.570312 9.65625 -5.03125 9.65625 -5.6875 Z M 9.65625 -5.6875 "/></g></g></g><g fill="#404040" fill-opacity="1"><g transform="translate(248.180407, 215.735758)"><g><path d="M 6.6875 0 L 2.015625 0 C 1.816406 0 1.648438 -0.0664062 1.515625 -0.203125 C 1.378906 -0.347656 1.3125 -0.515625 1.3125 -0.703125 L 1.3125 -17.828125 C 1.3125 -18.023438 1.378906 -18.191406 1.515625 -18.328125 C 1.648438 -18.460938 1.816406 -18.53125 2.015625 -18.53125 L 6.6875 -18.53125 C 6.875 -18.53125 7.035156 -18.460938 7.171875 -18.328125 C 7.316406 -18.191406 7.390625 -18.023438 7.390625 -17.828125 L 7.390625 -0.703125 C 7.390625 -0.515625 7.316406 -0.347656 7.171875 -0.203125 C 7.035156 -0.0664062 6.875 0 6.6875 0 Z M 6.6875 0 "/></g></g></g><g fill="#404040" fill-opacity="1"><g transform="translate(259.742933, 215.735758)"><g><path d="M 6.6875 0 L 2.015625 0 C 1.816406 0 1.648438 -0.0664062 1.515625 -0.203125 C 1.378906 -0.347656 1.3125 -0.515625 1.3125 -0.703125 L 1.3125 -12.875 C 1.3125 -13.0625 1.378906 -13.222656 1.515625 -13.359375 C 1.648438 -13.503906 1.816406 -13.578125 2.015625 -13.578125 L 6.6875 -13.578125 C 6.875 -13.578125 7.035156 -13.503906 7.171875 -13.359375 C 7.316406 -13.222656 7.390625 -13.0625 7.390625 -12.875 L 7.390625 -0.703125 C 7.390625 -0.515625 7.316406 -0.347656 7.171875 -0.203125 C 7.035156 -0.0664062 6.875 0 6.6875 0 Z M 7.265625 -18.609375 L 7.265625 -15.453125 C 7.265625 -15.265625 7.191406 -15.097656 7.046875 -14.953125 C 6.910156 -14.816406 6.742188 -14.75 6.546875 -14.75 L 2.140625 -14.75 C 1.953125 -14.75 1.785156 -14.816406 1.640625 -14.953125 C 1.503906 -15.097656 1.4375 -15.265625 1.4375 -15.453125 L 1.4375 -18.609375 C 1.4375 -18.804688 1.503906 -18.972656 1.640625 -19.109375 C 1.785156 -19.253906 1.953125 -19.328125 2.140625 -19.328125 L 6.546875 -19.328125 C 6.742188 -19.328125 6.910156 -19.253906 7.046875 -19.109375 C 7.191406 -18.972656 7.265625 -18.804688 7.265625 -18.609375 Z M 7.265625 -18.609375 "/></g></g></g><g fill="#404040" fill-opacity="1"><g transform="translate(271.305459, 215.735758)"><g><path d="M 0.90625 -5.90625 L 0.90625 -7.671875 C 0.90625 -9.660156 1.609375 -11.1875 3.015625 -12.25 C 4.429688 -13.3125 6.253906 -13.84375 8.484375 -13.84375 C 10.710938 -13.84375 12.53125 -13.3125 13.9375 -12.25 C 15.351562 -11.1875 16.0625 -9.660156 16.0625 -7.671875 L 16.0625 -5.90625 C 16.0625 -3.894531 15.378906 -2.363281 14.015625 -1.3125 C 12.660156 -0.257812 10.816406 0.265625 8.484375 0.265625 C 6.148438 0.265625 4.300781 -0.257812 2.9375 -1.3125 C 1.582031 -2.363281 0.90625 -3.894531 0.90625 -5.90625 Z M 9.65625 -5.6875 L 9.65625 -7.890625 C 9.65625 -8.546875 9.566406 -9.003906 9.390625 -9.265625 C 9.222656 -9.523438 8.921875 -9.65625 8.484375 -9.65625 C 8.046875 -9.65625 7.738281 -9.523438 7.5625 -9.265625 C 7.394531 -9.003906 7.3125 -8.546875 7.3125 -7.890625 L 7.3125 -5.6875 C 7.3125 -4.988281 7.394531 -4.519531 7.5625 -4.28125 C 7.738281 -4.039062 8.046875 -3.921875 8.484375 -3.921875 C 8.921875 -3.921875 9.222656 -4.050781 9.390625 -4.3125 C 9.566406 -4.570312 9.65625 -5.03125 9.65625 -5.6875 Z M 9.65625 -5.6875 "/></g></g></g></svg>